<?xml version="1.0" encoding="UTF-8"?>
<svg id="Layer_1" data-name="Layer 1" xmlns="http://www.w3.org/2000/svg" width="16" height="16" viewBox="0 0 16 16">
  <path d="M10.89,8.51c-.34.23-.78.24-1.13.03-.19-.12-.3-.34-.23-.55.03-.12.13-.19.23-.25.52-.31,1.39-.11,1.36.38,0,.15-.09.3-.23.4Z"/>
  <path d="M8.16,7.29c-.08.11-.19.15-.29.16-.11,0-.22-.05-.3-.14-.29-.34-.27-1.01.1-1.2.17-.09.36-.02.48.14.23.29.23.74.01,1.05Z"/>
  <path d="M9.34,12.75l-1,.02c-.7.01-1.39,0-2.09-.04-1-.05-1.98-.13-2.98-.3-.81-.13-1.62-.31-2.35-.68-.18-.09-.33-.2-.45-.35-.16-.2-.14-.45.04-.64.43-.42,1.16-.62,1.75-.79-.1-.67.13-1.15.5-1.66.11-.15.2-.29.29-.44.44-.75.53-1.24,1.08-2,.3-.43.71-.75,1.2-.93.13-.16.27-.29.44-.42.74-.55,1.63-.86,2.55-.9,1.02-.05,2.04.14,2.89.73.23.16.44.34.61.56.04,0,.1,0,.14.02.54.18.89.71,1.1,1.21.1.23.19.46.26.7.14.48.3.94.52,1.38.33.6.49,1.22.29,1.89.46.16.98.34,1.3.69.16.19.18.43.01.62s-.35.31-.57.41c-.47.22-.96.36-1.47.47-1.15.26-2.87.43-4.07.46ZM5.37,11.96c.5.04.99.07,1.49.08l.92.02c.25,0,.49,0,.74,0l.67-.02.41-.02.54-.04c-.16-.61-.16-1.12-.1-1.76-.2,0-.77.08-.87-.13-.02-.08-.02-.17.04-.24.04-.05.12-.08.19-.09.25-.01.48-.01.73-.05.4-.05.76-.19,1.1-.39.18-.11.33-.25.47-.42.34-.4.42-.93.22-1.42-.05-.12-.13-.25-.13-.39l-.02-.7c0-.25-.08-.5-.16-.74-.24-.65-.81-1.12-1.46-1.34-.61-.2-1.23-.27-1.87-.23-.57.04-1.1.18-1.6.44-.36.18-.8.49-.97.86-1.03.17-1.47,1.26-1.82,2.11-.07.17-.15.33-.24.5-.29.54-.74.97-.79,1.58-.05.52.17,1.02.61,1.29.26.16.56.22.87.22.52-.01.98-.29,1.26-.73.37-.59.32-1.41.29-2.09l-.04-.87c-.01-.32-.02-.63,0-.94,0-.14.12-.25.23-.25.12,0,.23.07.26.2.18.93.31,2.19.26,3.13-.04.8-.4,1.52-1.11,1.92l-.11.5ZM12.43,10.6c.61-.05,1.06-.52,1.08-1.13.01-.37-.09-.71-.24-1.04l-.25-.55-.38-.88-.24-.52.02.59c0,.15.14.45.19.72.19,1.02-.57,1.88-1.49,2.22.31.4.79.63,1.31.58Z"/>
  <path d="M11.37,6.17c.12.32.04.88-.31.92-.15.02-.28-.04-.36-.17-.17-.27-.2-.64-.05-.92.08-.14.23-.23.38-.18.17.05.29.2.34.36Z"/>
</svg>